<?xml version="1.0" encoding="UTF-8" standalone="no"?>
<!DOCTYPE svg PUBLIC "-//W3C//DTD SVG 1.1//EN"
 "http://www.w3.org/Graphics/SVG/1.1/DTD/svg11.dtd">
<!-- Generated by graphviz version 2.38.0 (20140413.2041)
 -->
<!-- Title: snakemake_dag Pages: 1 -->
<svg width="1239pt" height="548pt"
 viewBox="0.00 0.00 1239.00 548.00" xmlns="http://www.w3.org/2000/svg" xmlns:xlink="http://www.w3.org/1999/xlink">
<g id="graph0" class="graph" transform="scale(1 1) rotate(0) translate(4 544)">
<title>snakemake_dag</title>
<polygon fill="white" stroke="none" points="-4,4 -4,-544 1235,-544 1235,4 -4,4"/>
<!-- 0 -->
<g id="node1" class="node"><title>0</title>
<path fill="none" stroke="#d8ac56" stroke-width="2" d="M163.435,-468C163.435,-468 116.565,-468 116.565,-468 110.565,-468 104.565,-462 104.565,-456 104.565,-456 104.565,-444 104.565,-444 104.565,-438 110.565,-432 116.565,-432 116.565,-432 163.435,-432 163.435,-432 169.435,-432 175.435,-438 175.435,-444 175.435,-444 175.435,-456 175.435,-456 175.435,-462 169.435,-468 163.435,-468"/>
<text text-anchor="middle" x="140" y="-453" font-family="sans" font-size="10.00">bowtie2_map</text>
<text text-anchor="middle" x="140" y="-441" font-family="sans" font-size="10.00">sample: A</text>
</g>
<!-- 8 -->
<g id="node9" class="node"><title>8</title>
<path fill="none" stroke="#d85656" stroke-width="2" d="M163.552,-396C163.552,-396 116.448,-396 116.448,-396 110.448,-396 104.448,-390 104.448,-384 104.448,-384 104.448,-372 104.448,-372 104.448,-366 110.448,-360 116.448,-360 116.448,-360 163.552,-360 163.552,-360 169.552,-360 175.552,-366 175.552,-372 175.552,-372 175.552,-384 175.552,-384 175.552,-390 169.552,-396 163.552,-396"/>
<text text-anchor="middle" x="140" y="-375" font-family="sans" font-size="10.00">samtools_sort</text>
</g>
<!-- 0&#45;&gt;8 -->
<g id="edge13" class="edge"><title>0&#45;&gt;8</title>
<path fill="none" stroke="grey" stroke-width="2" d="M140,-431.697C140,-423.983 140,-414.712 140,-406.112"/>
<polygon fill="grey" stroke="grey" stroke-width="2" points="143.5,-406.104 140,-396.104 136.5,-406.104 143.5,-406.104"/>
</g>
<!-- 1 -->
<g id="node2" class="node"><title>1</title>
<path fill="none" stroke="#d88556" stroke-width="2" d="M882.58,-324C882.58,-324 809.42,-324 809.42,-324 803.42,-324 797.42,-318 797.42,-312 797.42,-312 797.42,-300 797.42,-300 797.42,-294 803.42,-288 809.42,-288 809.42,-288 882.58,-288 882.58,-288 888.58,-288 894.58,-294 894.58,-300 894.58,-300 894.58,-312 894.58,-312 894.58,-318 888.58,-324 882.58,-324"/>
<text text-anchor="middle" x="846" y="-303" font-family="sans" font-size="10.00">anvi_run_centrifuge</text>
</g>
<!-- 19 -->
<g id="node20" class="node"><title>19</title>
<path fill="none" stroke="#56a9d8" stroke-width="2" d="M770.373,-252C770.373,-252 729.627,-252 729.627,-252 723.627,-252 717.627,-246 717.627,-240 717.627,-240 717.627,-228 717.627,-228 717.627,-222 723.627,-216 729.627,-216 729.627,-216 770.373,-216 770.373,-216 776.373,-216 782.373,-222 782.373,-228 782.373,-228 782.373,-240 782.373,-240 782.373,-246 776.373,-252 770.373,-252"/>
<text text-anchor="middle" x="750" y="-231" font-family="sans" font-size="10.00">anvi_profile</text>
</g>
<!-- 1&#45;&gt;19 -->
<g id="edge37" class="edge"><title>1&#45;&gt;19</title>
<path fill="none" stroke="grey" stroke-width="2" d="M822.27,-287.697C810.063,-278.796 795.015,-267.823 781.816,-258.199"/>
<polygon fill="grey" stroke="grey" stroke-width="2" points="783.6,-255.168 773.457,-252.104 779.475,-260.824 783.6,-255.168"/>
</g>
<!-- 21 -->
<g id="node22" class="node"><title>21</title>
<path fill="none" stroke="#56a9d8" stroke-width="2" d="M973.373,-252C973.373,-252 932.627,-252 932.627,-252 926.627,-252 920.627,-246 920.627,-240 920.627,-240 920.627,-228 920.627,-228 920.627,-222 926.627,-216 932.627,-216 932.627,-216 973.373,-216 973.373,-216 979.373,-216 985.373,-222 985.373,-228 985.373,-228 985.373,-240 985.373,-240 985.373,-246 979.373,-252 973.373,-252"/>
<text text-anchor="middle" x="953" y="-231" font-family="sans" font-size="10.00">anvi_profile</text>
</g>
<!-- 1&#45;&gt;21 -->
<g id="edge40" class="edge"><title>1&#45;&gt;21</title>
<path fill="none" stroke="grey" stroke-width="2" d="M872.175,-287.876C886.036,-278.808 903.241,-267.552 918.211,-257.759"/>
<polygon fill="grey" stroke="grey" stroke-width="2" points="920.272,-260.593 926.724,-252.19 916.44,-254.735 920.272,-260.593"/>
</g>
<!-- 2 -->
<g id="node3" class="node"><title>2</title>
<path fill="none" stroke="#56d882" stroke-width="2" d="M691.272,-324C691.272,-324 636.728,-324 636.728,-324 630.728,-324 624.728,-318 624.728,-312 624.728,-312 624.728,-300 624.728,-300 624.728,-294 630.728,-288 636.728,-288 636.728,-288 691.272,-288 691.272,-288 697.272,-288 703.272,-294 703.272,-300 703.272,-300 703.272,-312 703.272,-312 703.272,-318 697.272,-324 691.272,-324"/>
<text text-anchor="middle" x="664" y="-303" font-family="sans" font-size="10.00">samtools_index</text>
</g>
<!-- 2&#45;&gt;19 -->
<g id="edge35" class="edge"><title>2&#45;&gt;19</title>
<path fill="none" stroke="grey" stroke-width="2" d="M685.258,-287.697C696.089,-278.881 709.418,-268.032 721.16,-258.474"/>
<polygon fill="grey" stroke="grey" stroke-width="2" points="723.44,-261.132 728.986,-252.104 719.021,-255.703 723.44,-261.132"/>
</g>
<!-- 3 -->
<g id="node4" class="node"><title>3</title>
<path fill="none" stroke="#56d8d8" stroke-width="2" d="M306.967,-468C306.967,-468 205.033,-468 205.033,-468 199.033,-468 193.033,-462 193.033,-456 193.033,-456 193.033,-444 193.033,-444 193.033,-438 199.033,-432 205.033,-432 205.033,-432 306.967,-432 306.967,-432 312.967,-432 318.967,-438 318.967,-444 318.967,-444 318.967,-456 318.967,-456 318.967,-462 312.967,-468 306.967,-468"/>
<text text-anchor="middle" x="256" y="-453" font-family="sans" font-size="10.00">anvi_gen_contigs_database</text>
<text text-anchor="middle" x="256" y="-441" font-family="sans" font-size="10.00">assembly: Y</text>
</g>
<!-- 7 -->
<g id="node8" class="node"><title>7</title>
<path fill="none" stroke="#56a9d8" stroke-width="2" d="M298.373,-252C298.373,-252 257.627,-252 257.627,-252 251.627,-252 245.627,-246 245.627,-240 245.627,-240 245.627,-228 245.627,-228 245.627,-222 251.627,-216 257.627,-216 257.627,-216 298.373,-216 298.373,-216 304.373,-216 310.373,-222 310.373,-228 310.373,-228 310.373,-240 310.373,-240 310.373,-246 304.373,-252 298.373,-252"/>
<text text-anchor="middle" x="278" y="-231" font-family="sans" font-size="10.00">anvi_profile</text>
</g>
<!-- 3&#45;&gt;7 -->
<g id="edge12" class="edge"><title>3&#45;&gt;7</title>
<path fill="none" stroke="grey" stroke-width="2" d="M247.408,-431.939C233.496,-401.864 209.475,-337.881 229,-288 233.197,-277.279 240.692,-267.427 248.578,-259.201"/>
<polygon fill="grey" stroke="grey" stroke-width="2" points="251.123,-261.608 255.847,-252.125 246.24,-256.592 251.123,-261.608"/>
</g>
<!-- 9 -->
<g id="node10" class="node"><title>9</title>
<path fill="none" stroke="#56a9d8" stroke-width="2" d="M501.373,-252C501.373,-252 460.627,-252 460.627,-252 454.627,-252 448.627,-246 448.627,-240 448.627,-240 448.627,-228 448.627,-228 448.627,-222 454.627,-216 460.627,-216 460.627,-216 501.373,-216 501.373,-216 507.373,-216 513.373,-222 513.373,-228 513.373,-228 513.373,-240 513.373,-240 513.373,-246 507.373,-252 501.373,-252"/>
<text text-anchor="middle" x="481" y="-231" font-family="sans" font-size="10.00">anvi_profile</text>
</g>
<!-- 3&#45;&gt;9 -->
<g id="edge18" class="edge"><title>3&#45;&gt;9</title>
<path fill="none" stroke="grey" stroke-width="2" d="M319.123,-441.441C352.172,-434.528 391.22,-421.301 418,-396 456.161,-359.947 471.585,-298.004 477.528,-262.378"/>
<polygon fill="grey" stroke="grey" stroke-width="2" points="481.029,-262.639 479.082,-252.225 474.109,-261.58 481.029,-262.639"/>
</g>
<!-- 10 -->
<g id="node11" class="node"><title>10</title>
<path fill="none" stroke="#5682d8" stroke-width="2" d="M306.494,-324C306.494,-324 249.506,-324 249.506,-324 243.506,-324 237.506,-318 237.506,-312 237.506,-312 237.506,-300 237.506,-300 237.506,-294 243.506,-288 249.506,-288 249.506,-288 306.494,-288 306.494,-288 312.494,-288 318.494,-294 318.494,-300 318.494,-300 318.494,-312 318.494,-312 318.494,-318 312.494,-324 306.494,-324"/>
<text text-anchor="middle" x="278" y="-303" font-family="sans" font-size="10.00">anvi_run_hmms</text>
</g>
<!-- 3&#45;&gt;10 -->
<g id="edge19" class="edge"><title>3&#45;&gt;10</title>
<path fill="none" stroke="grey" stroke-width="2" d="M258.654,-431.871C262.403,-407.67 269.291,-363.211 273.756,-334.393"/>
<polygon fill="grey" stroke="grey" stroke-width="2" points="277.264,-334.607 275.337,-324.189 270.347,-333.535 277.264,-334.607"/>
</g>
<!-- 13 -->
<g id="node14" class="node"><title>13</title>
<path fill="none" stroke="#d88556" stroke-width="2" d="M421.58,-324C421.58,-324 348.42,-324 348.42,-324 342.42,-324 336.42,-318 336.42,-312 336.42,-312 336.42,-300 336.42,-300 336.42,-294 342.42,-288 348.42,-288 348.42,-288 421.58,-288 421.58,-288 427.58,-288 433.58,-294 433.58,-300 433.58,-300 433.58,-312 433.58,-312 433.58,-318 427.58,-324 421.58,-324"/>
<text text-anchor="middle" x="385" y="-303" font-family="sans" font-size="10.00">anvi_run_centrifuge</text>
</g>
<!-- 3&#45;&gt;13 -->
<g id="edge26" class="edge"><title>3&#45;&gt;13</title>
<path fill="none" stroke="grey" stroke-width="2" d="M319.257,-442.218C348.928,-435.503 381.711,-422.219 400,-396 412.748,-377.723 406.704,-352.288 398.812,-333.287"/>
<polygon fill="grey" stroke="grey" stroke-width="2" points="401.923,-331.672 394.607,-324.009 395.548,-334.562 401.923,-331.672"/>
</g>
<!-- 16 -->
<g id="node17" class="node"><title>16</title>
<path fill="none" stroke="#56d8a9" stroke-width="2" d="M510.09,-108C510.09,-108 451.91,-108 451.91,-108 445.91,-108 439.91,-102 439.91,-96 439.91,-96 439.91,-84 439.91,-84 439.91,-78 445.91,-72 451.91,-72 451.91,-72 510.09,-72 510.09,-72 516.09,-72 522.09,-78 522.09,-84 522.09,-84 522.09,-96 522.09,-96 522.09,-102 516.09,-108 510.09,-108"/>
<text text-anchor="middle" x="481" y="-87" font-family="sans" font-size="10.00">anvi_summarize</text>
</g>
<!-- 3&#45;&gt;16 -->
<g id="edge30" class="edge"><title>3&#45;&gt;16</title>
<path fill="none" stroke="grey" stroke-width="2" d="M192.614,-433.002C142.931,-420.119 80.4908,-403.039 70,-396 28.2103,-367.961 0,-357.324 0,-307 0,-307 0,-307 0,-233 0,-144.182 305.484,-106.744 429.551,-95.201"/>
<polygon fill="grey" stroke="grey" stroke-width="2" points="429.933,-98.6809 439.574,-94.2884 429.298,-91.7097 429.933,-98.6809"/>
</g>
<!-- 23 -->
<g id="node24" class="node"><title>23</title>
<path fill="none" stroke="#d6d856" stroke-width="2" d="M379.468,-396C379.468,-396 292.532,-396 292.532,-396 286.532,-396 280.532,-390 280.532,-384 280.532,-384 280.532,-372 280.532,-372 280.532,-366 286.532,-360 292.532,-360 292.532,-360 379.468,-360 379.468,-360 385.468,-360 391.468,-366 391.468,-372 391.468,-372 391.468,-384 391.468,-384 391.468,-390 385.468,-396 379.468,-396"/>
<text text-anchor="middle" x="336" y="-375" font-family="sans" font-size="10.00">anvi_export_gene_calls</text>
</g>
<!-- 3&#45;&gt;23 -->
<g id="edge45" class="edge"><title>3&#45;&gt;23</title>
<path fill="none" stroke="grey" stroke-width="2" d="M275.775,-431.697C285.754,-422.965 298.011,-412.24 308.857,-402.75"/>
<polygon fill="grey" stroke="grey" stroke-width="2" points="311.231,-405.323 316.452,-396.104 306.622,-400.055 311.231,-405.323"/>
</g>
<!-- 29 -->
<g id="node30" class="node"><title>29</title>
<path fill="none" stroke="#afd856" stroke-width="2" d="M500.704,-180C500.704,-180 461.296,-180 461.296,-180 455.296,-180 449.296,-174 449.296,-168 449.296,-168 449.296,-156 449.296,-156 449.296,-150 455.296,-144 461.296,-144 461.296,-144 500.704,-144 500.704,-144 506.704,-144 512.704,-150 512.704,-156 512.704,-156 512.704,-168 512.704,-168 512.704,-174 506.704,-180 500.704,-180"/>
<text text-anchor="middle" x="481" y="-159" font-family="sans" font-size="10.00">anvi_merge</text>
</g>
<!-- 3&#45;&gt;29 -->
<g id="edge54" class="edge"><title>3&#45;&gt;29</title>
<path fill="none" stroke="grey" stroke-width="2" d="M193.493,-431.885C151.138,-419.709 101.685,-404.123 95,-396 64.3936,-358.808 60.2952,-328.734 86,-288 124.571,-226.877 346.008,-184.687 439.432,-169.372"/>
<polygon fill="grey" stroke="grey" stroke-width="2" points="440.07,-172.815 449.383,-167.764 438.952,-165.905 440.07,-172.815"/>
</g>
<!-- 4 -->
<g id="node5" class="node"><title>4</title>
<path fill="none" stroke="#80d856" stroke-width="2" d="M630,-36C630,-36 600,-36 600,-36 594,-36 588,-30 588,-24 588,-24 588,-12 588,-12 588,-6 594,-0 600,-0 600,-0 630,-0 630,-0 636,-0 642,-6 642,-12 642,-12 642,-24 642,-24 642,-30 636,-36 630,-36"/>
<text text-anchor="middle" x="615" y="-15" font-family="sans" font-size="10.00">all</text>
</g>
<!-- 5 -->
<g id="node6" class="node"><title>5</title>
<path fill="none" stroke="#d85656" stroke-width="2" d="M1111.55,-396C1111.55,-396 1064.45,-396 1064.45,-396 1058.45,-396 1052.45,-390 1052.45,-384 1052.45,-384 1052.45,-372 1052.45,-372 1052.45,-366 1058.45,-360 1064.45,-360 1064.45,-360 1111.55,-360 1111.55,-360 1117.55,-360 1123.55,-366 1123.55,-372 1123.55,-372 1123.55,-384 1123.55,-384 1123.55,-390 1117.55,-396 1111.55,-396"/>
<text text-anchor="middle" x="1088" y="-375" font-family="sans" font-size="10.00">samtools_sort</text>
</g>
<!-- 20 -->
<g id="node21" class="node"><title>20</title>
<path fill="none" stroke="#56d882" stroke-width="2" d="M1115.27,-324C1115.27,-324 1060.73,-324 1060.73,-324 1054.73,-324 1048.73,-318 1048.73,-312 1048.73,-312 1048.73,-300 1048.73,-300 1048.73,-294 1054.73,-288 1060.73,-288 1060.73,-288 1115.27,-288 1115.27,-288 1121.27,-288 1127.27,-294 1127.27,-300 1127.27,-300 1127.27,-312 1127.27,-312 1127.27,-318 1121.27,-324 1115.27,-324"/>
<text text-anchor="middle" x="1088" y="-303" font-family="sans" font-size="10.00">samtools_index</text>
</g>
<!-- 5&#45;&gt;20 -->
<g id="edge38" class="edge"><title>5&#45;&gt;20</title>
<path fill="none" stroke="grey" stroke-width="2" d="M1088,-359.697C1088,-351.983 1088,-342.712 1088,-334.112"/>
<polygon fill="grey" stroke="grey" stroke-width="2" points="1091.5,-334.104 1088,-324.104 1084.5,-334.104 1091.5,-334.104"/>
</g>
<!-- 5&#45;&gt;21 -->
<g id="edge41" class="edge"><title>5&#45;&gt;21</title>
<path fill="none" stroke="grey" stroke-width="2" d="M1108.84,-359.696C1128.73,-341.069 1153.3,-311.016 1136,-288 1119.12,-265.535 1044.03,-249.543 995.436,-241.328"/>
<polygon fill="grey" stroke="grey" stroke-width="2" points="995.936,-237.863 985.5,-239.694 994.799,-244.77 995.936,-237.863"/>
</g>
<!-- 6 -->
<g id="node7" class="node"><title>6</title>
<path fill="none" stroke="#56d8d8" stroke-width="2" d="M1022.97,-468C1022.97,-468 921.033,-468 921.033,-468 915.033,-468 909.033,-462 909.033,-456 909.033,-456 909.033,-444 909.033,-444 909.033,-438 915.033,-432 921.033,-432 921.033,-432 1022.97,-432 1022.97,-432 1028.97,-432 1034.97,-438 1034.97,-444 1034.97,-444 1034.97,-456 1034.97,-456 1034.97,-462 1028.97,-468 1022.97,-468"/>
<text text-anchor="middle" x="972" y="-453" font-family="sans" font-size="10.00">anvi_gen_contigs_database</text>
<text text-anchor="middle" x="972" y="-441" font-family="sans" font-size="10.00">assembly: X</text>
</g>
<!-- 6&#45;&gt;1 -->
<g id="edge2" class="edge"><title>6&#45;&gt;1</title>
<path fill="none" stroke="grey" stroke-width="2" d="M963.52,-431.673C953.738,-412.755 936.359,-382.2 916,-360 905.886,-348.971 893.234,-338.607 881.479,-330.019"/>
<polygon fill="grey" stroke="grey" stroke-width="2" points="883.309,-327.026 873.128,-324.096 879.26,-332.736 883.309,-327.026"/>
</g>
<!-- 11 -->
<g id="node12" class="node"><title>11</title>
<path fill="none" stroke="#afd856" stroke-width="2" d="M769.704,-180C769.704,-180 730.296,-180 730.296,-180 724.296,-180 718.296,-174 718.296,-168 718.296,-168 718.296,-156 718.296,-156 718.296,-150 724.296,-144 730.296,-144 730.296,-144 769.704,-144 769.704,-144 775.704,-144 781.704,-150 781.704,-156 781.704,-156 781.704,-168 781.704,-168 781.704,-174 775.704,-180 769.704,-180"/>
<text text-anchor="middle" x="750" y="-159" font-family="sans" font-size="10.00">anvi_merge</text>
</g>
<!-- 6&#45;&gt;11 -->
<g id="edge21" class="edge"><title>6&#45;&gt;11</title>
<path fill="none" stroke="grey" stroke-width="2" d="M1032.87,-432C1075.36,-419.628 1125.71,-403.739 1133,-396 1166.41,-360.519 1178.37,-328.99 1152,-288 1112.22,-226.16 886.64,-184.31 791.898,-169.229"/>
<polygon fill="grey" stroke="grey" stroke-width="2" points="792.233,-165.739 781.811,-167.646 791.147,-172.654 792.233,-165.739"/>
</g>
<!-- 17 -->
<g id="node18" class="node"><title>17</title>
<path fill="none" stroke="#5682d8" stroke-width="2" d="M981.494,-324C981.494,-324 924.506,-324 924.506,-324 918.506,-324 912.506,-318 912.506,-312 912.506,-312 912.506,-300 912.506,-300 912.506,-294 918.506,-288 924.506,-288 924.506,-288 981.494,-288 981.494,-288 987.494,-288 993.494,-294 993.494,-300 993.494,-300 993.494,-312 993.494,-312 993.494,-318 987.494,-324 981.494,-324"/>
<text text-anchor="middle" x="953" y="-303" font-family="sans" font-size="10.00">anvi_run_hmms</text>
</g>
<!-- 6&#45;&gt;17 -->
<g id="edge31" class="edge"><title>6&#45;&gt;17</title>
<path fill="none" stroke="grey" stroke-width="2" d="M969.708,-431.871C966.47,-407.67 960.521,-363.211 956.665,-334.393"/>
<polygon fill="grey" stroke="grey" stroke-width="2" points="960.095,-333.637 955.3,-324.189 953.157,-334.565 960.095,-333.637"/>
</g>
<!-- 6&#45;&gt;19 -->
<g id="edge34" class="edge"><title>6&#45;&gt;19</title>
<path fill="none" stroke="grey" stroke-width="2" d="M908.726,-446.506C868.795,-441.554 819.067,-428.617 788,-396 753.355,-359.627 748.313,-297.801 748.594,-262.282"/>
<polygon fill="grey" stroke="grey" stroke-width="2" points="752.096,-262.238 748.826,-252.16 745.098,-262.078 752.096,-262.238"/>
</g>
<!-- 6&#45;&gt;21 -->
<g id="edge39" class="edge"><title>6&#45;&gt;21</title>
<path fill="none" stroke="grey" stroke-width="2" d="M981.114,-431.971C995.901,-401.948 1021.59,-338.04 1002,-288 997.803,-277.279 990.308,-267.427 982.422,-259.201"/>
<polygon fill="grey" stroke="grey" stroke-width="2" points="984.76,-256.592 975.153,-252.125 979.877,-261.608 984.76,-256.592"/>
</g>
<!-- 26 -->
<g id="node27" class="node"><title>26</title>
<path fill="none" stroke="#d6d856" stroke-width="2" d="M895.468,-396C895.468,-396 808.532,-396 808.532,-396 802.532,-396 796.532,-390 796.532,-384 796.532,-384 796.532,-372 796.532,-372 796.532,-366 802.532,-360 808.532,-360 808.532,-360 895.468,-360 895.468,-360 901.468,-360 907.468,-366 907.468,-372 907.468,-372 907.468,-384 907.468,-384 907.468,-390 901.468,-396 895.468,-396"/>
<text text-anchor="middle" x="852" y="-375" font-family="sans" font-size="10.00">anvi_export_gene_calls</text>
</g>
<!-- 6&#45;&gt;26 -->
<g id="edge48" class="edge"><title>6&#45;&gt;26</title>
<path fill="none" stroke="grey" stroke-width="2" d="M942.645,-431.876C926.955,-422.724 907.443,-411.342 890.546,-401.485"/>
<polygon fill="grey" stroke="grey" stroke-width="2" points="891.87,-398.205 881.468,-396.19 888.342,-404.252 891.87,-398.205"/>
</g>
<!-- 30 -->
<g id="node31" class="node"><title>30</title>
<path fill="none" stroke="#56d8a9" stroke-width="2" d="M779.09,-108C779.09,-108 720.91,-108 720.91,-108 714.91,-108 708.91,-102 708.91,-96 708.91,-96 708.91,-84 708.91,-84 708.91,-78 714.91,-72 720.91,-72 720.91,-72 779.09,-72 779.09,-72 785.09,-72 791.09,-78 791.09,-84 791.09,-84 791.09,-96 791.09,-96 791.09,-102 785.09,-108 779.09,-108"/>
<text text-anchor="middle" x="750" y="-87" font-family="sans" font-size="10.00">anvi_summarize</text>
</g>
<!-- 6&#45;&gt;30 -->
<g id="edge55" class="edge"><title>6&#45;&gt;30</title>
<path fill="none" stroke="grey" stroke-width="2" d="M1035.06,-433.267C1085.42,-420.362 1149.3,-403.104 1160,-396 1202.16,-368.012 1231,-357.6 1231,-307 1231,-307 1231,-307 1231,-233 1231,-144.182 925.516,-106.744 801.449,-95.201"/>
<polygon fill="grey" stroke="grey" stroke-width="2" points="801.702,-91.7097 791.426,-94.2884 801.067,-98.6809 801.702,-91.7097"/>
</g>
<!-- 7&#45;&gt;11 -->
<g id="edge23" class="edge"><title>7&#45;&gt;11</title>
<path fill="none" stroke="grey" stroke-width="2" d="M310.442,-228.189C393.77,-215.831 615.265,-182.982 708.118,-169.211"/>
<polygon fill="grey" stroke="grey" stroke-width="2" points="708.886,-172.636 718.265,-167.707 707.859,-165.711 708.886,-172.636"/>
</g>
<!-- 7&#45;&gt;29 -->
<g id="edge53" class="edge"><title>7&#45;&gt;29</title>
<path fill="none" stroke="grey" stroke-width="2" d="M310.615,-221.753C345.596,-209.691 401.243,-190.502 439.363,-177.358"/>
<polygon fill="grey" stroke="grey" stroke-width="2" points="440.822,-180.557 449.135,-173.988 438.54,-173.939 440.822,-180.557"/>
</g>
<!-- 8&#45;&gt;7 -->
<g id="edge8" class="edge"><title>8&#45;&gt;7</title>
<path fill="none" stroke="grey" stroke-width="2" d="M120.478,-359.915C101.492,-341.209 77.8374,-310.839 95,-288 111.882,-265.535 186.971,-249.543 235.564,-241.328"/>
<polygon fill="grey" stroke="grey" stroke-width="2" points="236.201,-244.77 245.5,-239.694 235.064,-237.863 236.201,-244.77"/>
</g>
<!-- 24 -->
<g id="node25" class="node"><title>24</title>
<path fill="none" stroke="#56d882" stroke-width="2" d="M170.272,-324C170.272,-324 115.728,-324 115.728,-324 109.728,-324 103.728,-318 103.728,-312 103.728,-312 103.728,-300 103.728,-300 103.728,-294 109.728,-288 115.728,-288 115.728,-288 170.272,-288 170.272,-288 176.272,-288 182.272,-294 182.272,-300 182.272,-300 182.272,-312 182.272,-312 182.272,-318 176.272,-324 170.272,-324"/>
<text text-anchor="middle" x="143" y="-303" font-family="sans" font-size="10.00">samtools_index</text>
</g>
<!-- 8&#45;&gt;24 -->
<g id="edge46" class="edge"><title>8&#45;&gt;24</title>
<path fill="none" stroke="grey" stroke-width="2" d="M140.742,-359.697C141.072,-351.983 141.469,-342.712 141.838,-334.112"/>
<polygon fill="grey" stroke="grey" stroke-width="2" points="145.335,-334.245 142.267,-324.104 138.342,-333.945 145.335,-334.245"/>
</g>
<!-- 9&#45;&gt;11 -->
<g id="edge20" class="edge"><title>9&#45;&gt;11</title>
<path fill="none" stroke="grey" stroke-width="2" d="M513.448,-224.556C562.283,-211.848 654.662,-187.809 708.388,-173.828"/>
<polygon fill="grey" stroke="grey" stroke-width="2" points="709.476,-177.162 718.273,-171.256 707.713,-170.387 709.476,-177.162"/>
</g>
<!-- 9&#45;&gt;29 -->
<g id="edge50" class="edge"><title>9&#45;&gt;29</title>
<path fill="none" stroke="grey" stroke-width="2" d="M481,-215.697C481,-207.983 481,-198.712 481,-190.112"/>
<polygon fill="grey" stroke="grey" stroke-width="2" points="484.5,-190.104 481,-180.104 477.5,-190.104 484.5,-190.104"/>
</g>
<!-- 10&#45;&gt;7 -->
<g id="edge10" class="edge"><title>10&#45;&gt;7</title>
<path fill="none" stroke="grey" stroke-width="2" d="M278,-287.697C278,-279.983 278,-270.712 278,-262.112"/>
<polygon fill="grey" stroke="grey" stroke-width="2" points="281.5,-262.104 278,-252.104 274.5,-262.104 281.5,-262.104"/>
</g>
<!-- 10&#45;&gt;9 -->
<g id="edge15" class="edge"><title>10&#45;&gt;9</title>
<path fill="none" stroke="grey" stroke-width="2" d="M318.639,-290.892C321.468,-289.912 324.277,-288.941 327,-288 364.86,-274.918 407.979,-260.084 438.941,-249.443"/>
<polygon fill="grey" stroke="grey" stroke-width="2" points="440.225,-252.703 448.545,-246.143 437.95,-246.083 440.225,-252.703"/>
</g>
<!-- 11&#45;&gt;30 -->
<g id="edge56" class="edge"><title>11&#45;&gt;30</title>
<path fill="none" stroke="grey" stroke-width="2" d="M750,-143.697C750,-135.983 750,-126.712 750,-118.112"/>
<polygon fill="grey" stroke="grey" stroke-width="2" points="753.5,-118.104 750,-108.104 746.5,-118.104 753.5,-118.104"/>
</g>
<!-- 12 -->
<g id="node13" class="node"><title>12</title>
<path fill="none" stroke="#59d856" stroke-width="2" d="M320.935,-540C320.935,-540 269.065,-540 269.065,-540 263.065,-540 257.065,-534 257.065,-528 257.065,-528 257.065,-516 257.065,-516 257.065,-510 263.065,-504 269.065,-504 269.065,-504 320.935,-504 320.935,-504 326.935,-504 332.935,-510 332.935,-516 332.935,-516 332.935,-528 332.935,-528 332.935,-534 326.935,-540 320.935,-540"/>
<text text-anchor="middle" x="295" y="-525" font-family="sans" font-size="10.00">bowtie2_index</text>
<text text-anchor="middle" x="295" y="-513" font-family="sans" font-size="10.00">assembly: Y</text>
</g>
<!-- 12&#45;&gt;0 -->
<g id="edge1" class="edge"><title>12&#45;&gt;0</title>
<path fill="none" stroke="grey" stroke-width="2" d="M257.083,-503.876C235.184,-493.986 207.522,-481.494 184.585,-471.135"/>
<polygon fill="grey" stroke="grey" stroke-width="2" points="185.955,-467.914 175.401,-466.987 183.074,-474.293 185.955,-467.914"/>
</g>
<!-- 15 -->
<g id="node16" class="node"><title>15</title>
<path fill="none" stroke="#d8ac56" stroke-width="2" d="M472.435,-468C472.435,-468 425.565,-468 425.565,-468 419.565,-468 413.565,-462 413.565,-456 413.565,-456 413.565,-444 413.565,-444 413.565,-438 419.565,-432 425.565,-432 425.565,-432 472.435,-432 472.435,-432 478.435,-432 484.435,-438 484.435,-444 484.435,-444 484.435,-456 484.435,-456 484.435,-462 478.435,-468 472.435,-468"/>
<text text-anchor="middle" x="449" y="-453" font-family="sans" font-size="10.00">bowtie2_map</text>
<text text-anchor="middle" x="449" y="-441" font-family="sans" font-size="10.00">sample: B</text>
</g>
<!-- 12&#45;&gt;15 -->
<g id="edge28" class="edge"><title>12&#45;&gt;15</title>
<path fill="none" stroke="grey" stroke-width="2" d="M332.673,-503.876C354.351,-494.022 381.716,-481.584 404.456,-471.247"/>
<polygon fill="grey" stroke="grey" stroke-width="2" points="405.911,-474.431 413.566,-467.106 403.014,-468.058 405.911,-474.431"/>
</g>
<!-- 13&#45;&gt;7 -->
<g id="edge9" class="edge"><title>13&#45;&gt;7</title>
<path fill="none" stroke="grey" stroke-width="2" d="M358.825,-287.876C344.964,-278.808 327.759,-267.552 312.789,-257.759"/>
<polygon fill="grey" stroke="grey" stroke-width="2" points="314.56,-254.735 304.276,-252.19 310.728,-260.593 314.56,-254.735"/>
</g>
<!-- 13&#45;&gt;9 -->
<g id="edge14" class="edge"><title>13&#45;&gt;9</title>
<path fill="none" stroke="grey" stroke-width="2" d="M408.73,-287.697C420.937,-278.796 435.985,-267.823 449.184,-258.199"/>
<polygon fill="grey" stroke="grey" stroke-width="2" points="451.525,-260.824 457.543,-252.104 447.4,-255.168 451.525,-260.824"/>
</g>
<!-- 14 -->
<g id="node15" class="node"><title>14</title>
<path fill="none" stroke="#d85656" stroke-width="2" d="M549.552,-396C549.552,-396 502.448,-396 502.448,-396 496.448,-396 490.448,-390 490.448,-384 490.448,-384 490.448,-372 490.448,-372 490.448,-366 496.448,-360 502.448,-360 502.448,-360 549.552,-360 549.552,-360 555.552,-360 561.552,-366 561.552,-372 561.552,-372 561.552,-384 561.552,-384 561.552,-390 555.552,-396 549.552,-396"/>
<text text-anchor="middle" x="526" y="-375" font-family="sans" font-size="10.00">samtools_sort</text>
</g>
<!-- 14&#45;&gt;9 -->
<g id="edge17" class="edge"><title>14&#45;&gt;9</title>
<path fill="none" stroke="grey" stroke-width="2" d="M520.572,-359.871C512.869,-335.564 498.689,-290.819 489.561,-262.013"/>
<polygon fill="grey" stroke="grey" stroke-width="2" points="492.805,-260.665 486.447,-252.189 486.132,-262.779 492.805,-260.665"/>
</g>
<!-- 22 -->
<g id="node23" class="node"><title>22</title>
<path fill="none" stroke="#56d882" stroke-width="2" d="M594.272,-324C594.272,-324 539.728,-324 539.728,-324 533.728,-324 527.728,-318 527.728,-312 527.728,-312 527.728,-300 527.728,-300 527.728,-294 533.728,-288 539.728,-288 539.728,-288 594.272,-288 594.272,-288 600.272,-288 606.272,-294 606.272,-300 606.272,-300 606.272,-312 606.272,-312 606.272,-318 600.272,-324 594.272,-324"/>
<text text-anchor="middle" x="567" y="-303" font-family="sans" font-size="10.00">samtools_index</text>
</g>
<!-- 14&#45;&gt;22 -->
<g id="edge44" class="edge"><title>14&#45;&gt;22</title>
<path fill="none" stroke="grey" stroke-width="2" d="M536.135,-359.697C540.852,-351.644 546.562,-341.894 551.782,-332.982"/>
<polygon fill="grey" stroke="grey" stroke-width="2" points="554.948,-334.502 556.982,-324.104 548.908,-330.964 554.948,-334.502"/>
</g>
<!-- 15&#45;&gt;14 -->
<g id="edge27" class="edge"><title>15&#45;&gt;14</title>
<path fill="none" stroke="grey" stroke-width="2" d="M468.034,-431.697C477.545,-423.05 489.207,-412.449 499.57,-403.027"/>
<polygon fill="grey" stroke="grey" stroke-width="2" points="502.14,-405.421 507.185,-396.104 497.431,-400.241 502.14,-405.421"/>
</g>
<!-- 16&#45;&gt;4 -->
<g id="edge5" class="edge"><title>16&#45;&gt;4</title>
<path fill="none" stroke="grey" stroke-width="2" d="M513.78,-71.8761C533.534,-61.5567 558.713,-48.4034 579.017,-37.7973"/>
<polygon fill="grey" stroke="grey" stroke-width="2" points="580.722,-40.8552 587.965,-33.1228 577.481,-34.6508 580.722,-40.8552"/>
</g>
<!-- 17&#45;&gt;19 -->
<g id="edge33" class="edge"><title>17&#45;&gt;19</title>
<path fill="none" stroke="grey" stroke-width="2" d="M912.361,-290.892C909.532,-289.912 906.723,-288.941 904,-288 866.14,-274.918 823.021,-260.084 792.059,-249.443"/>
<polygon fill="grey" stroke="grey" stroke-width="2" points="793.05,-246.083 782.455,-246.143 790.775,-252.703 793.05,-246.083"/>
</g>
<!-- 17&#45;&gt;21 -->
<g id="edge43" class="edge"><title>17&#45;&gt;21</title>
<path fill="none" stroke="grey" stroke-width="2" d="M953,-287.697C953,-279.983 953,-270.712 953,-262.112"/>
<polygon fill="grey" stroke="grey" stroke-width="2" points="956.5,-262.104 953,-252.104 949.5,-262.104 956.5,-262.104"/>
</g>
<!-- 18 -->
<g id="node19" class="node"><title>18</title>
<path fill="none" stroke="#d8ac56" stroke-width="2" d="M803.435,-468C803.435,-468 756.565,-468 756.565,-468 750.565,-468 744.565,-462 744.565,-456 744.565,-456 744.565,-444 744.565,-444 744.565,-438 750.565,-432 756.565,-432 756.565,-432 803.435,-432 803.435,-432 809.435,-432 815.435,-438 815.435,-444 815.435,-444 815.435,-456 815.435,-456 815.435,-462 809.435,-468 803.435,-468"/>
<text text-anchor="middle" x="780" y="-453" font-family="sans" font-size="10.00">bowtie2_map</text>
<text text-anchor="middle" x="780" y="-441" font-family="sans" font-size="10.00">sample: A</text>
</g>
<!-- 27 -->
<g id="node28" class="node"><title>27</title>
<path fill="none" stroke="#d85656" stroke-width="2" d="M728.552,-396C728.552,-396 681.448,-396 681.448,-396 675.448,-396 669.448,-390 669.448,-384 669.448,-384 669.448,-372 669.448,-372 669.448,-366 675.448,-360 681.448,-360 681.448,-360 728.552,-360 728.552,-360 734.552,-360 740.552,-366 740.552,-372 740.552,-372 740.552,-384 740.552,-384 740.552,-390 734.552,-396 728.552,-396"/>
<text text-anchor="middle" x="705" y="-375" font-family="sans" font-size="10.00">samtools_sort</text>
</g>
<!-- 18&#45;&gt;27 -->
<g id="edge49" class="edge"><title>18&#45;&gt;27</title>
<path fill="none" stroke="grey" stroke-width="2" d="M761.461,-431.697C752.197,-423.05 740.838,-412.449 730.743,-403.027"/>
<polygon fill="grey" stroke="grey" stroke-width="2" points="733.025,-400.369 723.326,-396.104 728.249,-405.486 733.025,-400.369"/>
</g>
<!-- 19&#45;&gt;11 -->
<g id="edge22" class="edge"><title>19&#45;&gt;11</title>
<path fill="none" stroke="grey" stroke-width="2" d="M750,-215.697C750,-207.983 750,-198.712 750,-190.112"/>
<polygon fill="grey" stroke="grey" stroke-width="2" points="753.5,-190.104 750,-180.104 746.5,-190.104 753.5,-190.104"/>
</g>
<!-- 19&#45;&gt;29 -->
<g id="edge52" class="edge"><title>19&#45;&gt;29</title>
<path fill="none" stroke="grey" stroke-width="2" d="M717.552,-224.556C668.717,-211.848 576.338,-187.809 522.612,-173.828"/>
<polygon fill="grey" stroke="grey" stroke-width="2" points="523.287,-170.387 512.727,-171.256 521.524,-177.162 523.287,-170.387"/>
</g>
<!-- 20&#45;&gt;21 -->
<g id="edge42" class="edge"><title>20&#45;&gt;21</title>
<path fill="none" stroke="grey" stroke-width="2" d="M1054.98,-287.876C1036.78,-278.442 1014.02,-266.639 994.617,-256.579"/>
<polygon fill="grey" stroke="grey" stroke-width="2" points="996.172,-253.443 985.684,-251.947 992.95,-259.658 996.172,-253.443"/>
</g>
<!-- 21&#45;&gt;11 -->
<g id="edge24" class="edge"><title>21&#45;&gt;11</title>
<path fill="none" stroke="grey" stroke-width="2" d="M920.385,-221.753C885.404,-209.691 829.757,-190.502 791.637,-177.358"/>
<polygon fill="grey" stroke="grey" stroke-width="2" points="792.46,-173.939 781.865,-173.988 790.178,-180.557 792.46,-173.939"/>
</g>
<!-- 21&#45;&gt;29 -->
<g id="edge51" class="edge"><title>21&#45;&gt;29</title>
<path fill="none" stroke="grey" stroke-width="2" d="M920.558,-228.189C837.23,-215.831 615.735,-182.982 522.882,-169.211"/>
<polygon fill="grey" stroke="grey" stroke-width="2" points="523.141,-165.711 512.735,-167.707 522.114,-172.636 523.141,-165.711"/>
</g>
<!-- 22&#45;&gt;9 -->
<g id="edge16" class="edge"><title>22&#45;&gt;9</title>
<path fill="none" stroke="grey" stroke-width="2" d="M545.742,-287.697C534.911,-278.881 521.582,-268.032 509.84,-258.474"/>
<polygon fill="grey" stroke="grey" stroke-width="2" points="511.979,-255.703 502.014,-252.104 507.56,-261.132 511.979,-255.703"/>
</g>
<!-- 23&#45;&gt;13 -->
<g id="edge25" class="edge"><title>23&#45;&gt;13</title>
<path fill="none" stroke="grey" stroke-width="2" d="M348.112,-359.697C353.868,-351.474 360.862,-341.483 367.206,-332.421"/>
<polygon fill="grey" stroke="grey" stroke-width="2" points="370.16,-334.304 373.027,-324.104 364.425,-330.29 370.16,-334.304"/>
</g>
<!-- 24&#45;&gt;7 -->
<g id="edge11" class="edge"><title>24&#45;&gt;7</title>
<path fill="none" stroke="grey" stroke-width="2" d="M176.025,-287.876C194.219,-278.442 216.982,-266.639 236.383,-256.579"/>
<polygon fill="grey" stroke="grey" stroke-width="2" points="238.05,-259.658 245.316,-251.947 234.828,-253.443 238.05,-259.658"/>
</g>
<!-- 25 -->
<g id="node26" class="node"><title>25</title>
<path fill="none" stroke="#d8ac56" stroke-width="2" d="M1111.44,-468C1111.44,-468 1064.56,-468 1064.56,-468 1058.56,-468 1052.56,-462 1052.56,-456 1052.56,-456 1052.56,-444 1052.56,-444 1052.56,-438 1058.56,-432 1064.56,-432 1064.56,-432 1111.44,-432 1111.44,-432 1117.44,-432 1123.44,-438 1123.44,-444 1123.44,-444 1123.44,-456 1123.44,-456 1123.44,-462 1117.44,-468 1111.44,-468"/>
<text text-anchor="middle" x="1088" y="-453" font-family="sans" font-size="10.00">bowtie2_map</text>
<text text-anchor="middle" x="1088" y="-441" font-family="sans" font-size="10.00">sample: B</text>
</g>
<!-- 25&#45;&gt;5 -->
<g id="edge7" class="edge"><title>25&#45;&gt;5</title>
<path fill="none" stroke="grey" stroke-width="2" d="M1088,-431.697C1088,-423.983 1088,-414.712 1088,-406.112"/>
<polygon fill="grey" stroke="grey" stroke-width="2" points="1091.5,-406.104 1088,-396.104 1084.5,-406.104 1091.5,-406.104"/>
</g>
<!-- 26&#45;&gt;1 -->
<g id="edge3" class="edge"><title>26&#45;&gt;1</title>
<path fill="none" stroke="grey" stroke-width="2" d="M850.517,-359.697C849.856,-351.983 849.061,-342.712 848.324,-334.112"/>
<polygon fill="grey" stroke="grey" stroke-width="2" points="851.807,-333.769 847.466,-324.104 844.833,-334.367 851.807,-333.769"/>
</g>
<!-- 27&#45;&gt;2 -->
<g id="edge4" class="edge"><title>27&#45;&gt;2</title>
<path fill="none" stroke="grey" stroke-width="2" d="M694.865,-359.697C690.148,-351.644 684.438,-341.894 679.218,-332.982"/>
<polygon fill="grey" stroke="grey" stroke-width="2" points="682.092,-330.964 674.018,-324.104 676.052,-334.502 682.092,-330.964"/>
</g>
<!-- 27&#45;&gt;19 -->
<g id="edge36" class="edge"><title>27&#45;&gt;19</title>
<path fill="none" stroke="grey" stroke-width="2" d="M710.428,-359.871C718.131,-335.564 732.311,-290.819 741.439,-262.013"/>
<polygon fill="grey" stroke="grey" stroke-width="2" points="744.868,-262.779 744.553,-252.189 738.195,-260.665 744.868,-262.779"/>
</g>
<!-- 28 -->
<g id="node29" class="node"><title>28</title>
<path fill="none" stroke="#59d856" stroke-width="2" d="M959.935,-540C959.935,-540 908.065,-540 908.065,-540 902.065,-540 896.065,-534 896.065,-528 896.065,-528 896.065,-516 896.065,-516 896.065,-510 902.065,-504 908.065,-504 908.065,-504 959.935,-504 959.935,-504 965.935,-504 971.935,-510 971.935,-516 971.935,-516 971.935,-528 971.935,-528 971.935,-534 965.935,-540 959.935,-540"/>
<text text-anchor="middle" x="934" y="-525" font-family="sans" font-size="10.00">bowtie2_index</text>
<text text-anchor="middle" x="934" y="-513" font-family="sans" font-size="10.00">assembly: X</text>
</g>
<!-- 28&#45;&gt;18 -->
<g id="edge32" class="edge"><title>28&#45;&gt;18</title>
<path fill="none" stroke="grey" stroke-width="2" d="M896.327,-503.876C874.649,-494.022 847.284,-481.584 824.544,-471.247"/>
<polygon fill="grey" stroke="grey" stroke-width="2" points="825.986,-468.058 815.434,-467.106 823.089,-474.431 825.986,-468.058"/>
</g>
<!-- 28&#45;&gt;25 -->
<g id="edge47" class="edge"><title>28&#45;&gt;25</title>
<path fill="none" stroke="grey" stroke-width="2" d="M971.673,-503.876C993.351,-494.022 1020.72,-481.584 1043.46,-471.247"/>
<polygon fill="grey" stroke="grey" stroke-width="2" points="1044.91,-474.431 1052.57,-467.106 1042.01,-468.058 1044.91,-474.431"/>
</g>
<!-- 29&#45;&gt;16 -->
<g id="edge29" class="edge"><title>29&#45;&gt;16</title>
<path fill="none" stroke="grey" stroke-width="2" d="M481,-143.697C481,-135.983 481,-126.712 481,-118.112"/>
<polygon fill="grey" stroke="grey" stroke-width="2" points="484.5,-118.104 481,-108.104 477.5,-118.104 484.5,-118.104"/>
</g>
<!-- 30&#45;&gt;4 -->
<g id="edge6" class="edge"><title>30&#45;&gt;4</title>
<path fill="none" stroke="grey" stroke-width="2" d="M716.975,-71.8761C697.074,-61.5567 671.707,-48.4034 651.252,-37.7973"/>
<polygon fill="grey" stroke="grey" stroke-width="2" points="652.725,-34.6188 642.237,-33.1228 649.503,-40.8331 652.725,-34.6188"/>
</g>
</g>
</svg>
